<?xml version="1.0" encoding="UTF-8"?><svg id="a" xmlns="http://www.w3.org/2000/svg" viewBox="0 0 283.46 283.46"><defs><style>.c{fill:#2f5164;}</style></defs><g id="b"><path class="c" d="M156.85,0V30.54c55.29,7.67,96.44,54.97,96.38,110.79,0,61.75-49.92,111.81-111.5,111.81S30.24,203.08,30.24,141.33c-.06-55.82,41.08-103.12,96.37-110.79V0C55.45,7.57,0,68,0,141.33c0,78.5,63.46,142.13,141.73,142.13s141.73-63.63,141.73-142.13C283.46,68,228,7.57,156.85,0Z"/><rect class="c" x="96.38" y="16.95" width="30.24" height="124.38"/><rect class="c" x="156.85" y="16.95" width="30.24" height="124.38"/><path class="c" d="M217.35,141.33c.3-16.71-13-30.51-29.71-30.82-16.71-.3-30.51,13-30.82,29.71v1.1"/><path class="c" d="M126.64,141.33c.3-16.71-13-30.51-29.71-30.82-16.71-.3-30.51,13-30.82,29.71v1.1"/></g></svg>